<svg width="20" height="17" viewBox="0 0 20 17" fill="none" xmlns="http://www.w3.org/2000/svg">
<path d="M0.944297 12.7855V0.306383H5.49026C7.46315 0.306383 9.08543 0.906569 10.3571 2.10694C11.6288 3.30731 12.2646 4.78698 12.2646 6.54594C12.2646 8.3049 11.6288 9.78456 10.3571 10.9849C9.08543 12.1853 7.46315 12.7855 5.49026 12.7855H0.944297ZM3.61839 10.2897H5.49026C6.72628 10.2897 7.70084 9.95095 8.41393 9.27351C9.13891 8.58419 9.5014 7.675 9.5014 6.54594C9.5014 5.41688 9.13891 4.51363 8.41393 3.83619C7.70084 3.14687 6.72628 2.80221 5.49026 2.80221H3.61839V10.2897ZM12.5383 16.351V14.3008H19.491V16.351H12.5383Z" fill="black"/>
</svg>
